# xmcd
# 
# Track frame offsets:
#     151
#     25160
#     46890
#     58258
#     87992
#     114512
#     138763
#     153394
#     170828
#     189454
#     210384
#     231008
#     247564
# 
# Disc length: 3746
# 
# Revision: 1
# Processed by: cddbd v1.5.2PL0 Copyright (c) Steve Scherf et al.
# Submitted via: fre:ac v1.0.17
# 
DISCID=a20ea00d
DTITLE=Viszockij dalok Hobo előadásában - Adjatok a kutyáknak húst!
DYEAR=1998
DGENRE=Blues
TTITLE0=Énekes a mikrofonnál
TTITLE1=Nem tért vissza a csatából
TTITLE2=Hősi sírok
TTITLE3=Ballada a gyermekkorról
TTITLE4=Gólyák
TTITLE5=A ház
TTITLE6=Rendőrségi jegyzőkönyv
TTITLE7=Nem szeretem
TTITLE8=Menyasszonyom becsülettel elsirat majd engem
TTITLE9=Instrukciók egy külföldi út előtt
TTITLE10=Adjatok a kutyának húst
TTITLE11=Farkashajsza
TTITLE12=Az én Hamletem
EXTD=
EXTT0=
EXTT1=
EXTT2=
EXTT3=
EXTT4=
EXTT5=
EXTT6=
EXTT7=
EXTT8=
EXTT9=
EXTT10=
EXTT11=
EXTT12=
PLAYORDER=
